<?xml version="1.0" standalone="no"?>
<!DOCTYPE svg PUBLIC "-//W3C//DTD SVG 20010904//EN"
 "http://www.w3.org/TR/2001/REC-SVG-20010904/DTD/svg10.dtd">
<svg version="1.0" xmlns="http://www.w3.org/2000/svg"
 width="800.000000pt" height="571.000000pt" viewBox="0 0 800.000000 571.000000"
 preserveAspectRatio="xMidYMid meet">

<g transform="translate(0.000000,571.000000) scale(0.100000,-0.100000)"
fill="#000000" stroke="none">
<path d="M5997 4637 c-115 -139 -310 -335 -471 -475 l-49 -42 -508 0 c-424 0
-509 -2 -516 -14 -8 -15 -99 -120 -170 -197 -46 -49 -53 -69 -27 -69 17 0 95
78 162 161 20 26 47 52 60 58 36 17 922 15 922 -2 0 -14 -113 -103 -214 -169
-11 -7 -85 -56 -165 -109 -80 -53 -159 -104 -176 -113 -16 -9 -43 -25 -60 -35
-79 -49 -274 -155 -402 -218 l-141 -71 -129 5 c-235 9 -460 -32 -658 -119 -49
-22 -100 -42 -112 -45 -13 -3 -58 6 -100 21 -393 132 -400 135 -422 119 -12
-8 -21 -18 -21 -23 0 -9 507 -180 534 -180 7 0 51 18 98 40 105 49 299 106
410 120 117 14 261 13 256 -2 -11 -33 -706 -276 -1023 -359 -282 -73 -458
-112 -650 -144 -121 -20 -248 -45 -253 -50 -2 -2 13 -27 34 -56 29 -42 34 -56
25 -68 -23 -33 -22 -43 10 -108 33 -64 106 -147 219 -249 25 -22 59 -62 75
-88 17 -27 38 -60 47 -75 10 -14 21 -33 25 -41 4 -8 25 -42 48 -75 23 -34 44
-68 48 -78 9 -23 22 -22 98 9 35 14 122 48 193 75 l129 50 81 -13 c53 -9 189
-13 396 -13 278 0 333 3 465 23 680 104 1234 368 1523 727 93 114 107 136 151
226 47 98 69 175 77 263 5 72 -3 58 -37 -59 -53 -186 -152 -340 -316 -495
-354 -335 -890 -549 -1539 -615 -154 -15 -526 -19 -619 -6 l-50 7 40 13 c22 8
51 20 65 27 14 7 66 32 115 55 303 139 580 292 861 475 129 84 352 239 364
254 3 3 25 21 50 40 235 182 516 450 698 667 56 67 102 127 102 133 0 6 24 44
53 86 59 85 84 123 94 143 7 16 21 34 63 80 l28 31 109 0 c59 0 113 4 118 8
11 7 84 120 153 237 23 39 57 93 74 122 113 180 150 245 141 254 -6 6 -23 -10
-46 -45 -21 -31 -37 -58 -37 -60 0 -3 -21 -35 -46 -72 -25 -36 -48 -74 -52
-83 -3 -9 -10 -20 -14 -26 -13 -15 -74 -110 -126 -195 -24 -41 -50 -78 -56
-82 -16 -11 -164 -10 -171 1 -3 5 7 31 23 58 43 73 119 228 159 323 19 47 46
110 58 140 51 119 29 116 -78 -13z m-555 -687 c17 -23 32 -31 70 -36 26 -4 48
-10 48 -15 0 -5 -16 -16 -36 -24 -34 -14 -36 -18 -30 -46 6 -30 5 -31 -22 -24
-15 4 -43 7 -62 7 -19 0 -47 -3 -62 -7 -27 -7 -28 -6 -22 23 6 28 3 33 -30 49
-34 16 -36 18 -20 30 10 7 33 13 51 13 24 0 38 7 55 30 12 17 25 30 30 30 4 0
17 -13 30 -30z m-378 -306 c39 -43 45 -46 121 -58 l80 -12 -57 -38 c-50 -34
-58 -43 -58 -70 0 -18 5 -37 12 -44 24 -24 -4 -25 -71 -4 l-68 22 -64 -20
c-76 -24 -93 -25 -86 -6 3 8 9 30 12 49 7 34 5 36 -49 68 -31 19 -56 36 -56
39 0 3 35 11 77 17 52 8 81 17 90 29 23 32 63 74 70 74 4 0 25 -21 47 -46z
m-540 -388 c29 -36 45 -46 86 -55 28 -6 66 -11 85 -11 54 0 50 -17 -10 -51
-31 -18 -59 -38 -62 -46 -3 -8 -1 -35 4 -59 12 -52 8 -53 -69 -24 -66 25 -94
25 -160 0 -68 -26 -92 -26 -79 -2 5 9 11 33 13 52 3 32 0 37 -61 77 -72 47
-71 48 34 58 68 7 72 9 115 55 25 27 50 49 56 49 7 1 28 -19 48 -43z m-653
-317 c30 -33 61 -65 70 -70 10 -5 61 -14 115 -20 55 -7 103 -15 107 -19 4 -4
-30 -32 -76 -62 l-84 -56 10 -54 c5 -29 14 -62 19 -72 9 -17 7 -18 -24 -12
-18 3 -70 18 -114 32 l-82 26 -95 -31 c-118 -38 -120 -38 -113 -3 3 15 8 47
11 72 6 45 6 45 -40 78 -25 17 -48 32 -51 32 -3 0 -21 11 -41 25 -44 29 -43
29 97 44 l105 12 57 62 c32 34 57 65 58 70 1 18 22 2 71 -54z m-813 -211 c17
-24 52 -66 79 -94 l48 -50 158 -19 c86 -10 157 -21 157 -24 -1 -3 -50 -37
-110 -76 -60 -38 -111 -75 -114 -81 -2 -6 0 -32 5 -57 5 -26 13 -68 18 -94 5
-27 8 -49 7 -50 -1 -2 -36 8 -77 21 -41 14 -106 34 -146 46 l-71 22 -69 -21
c-37 -12 -103 -34 -146 -48 -78 -25 -99 -25 -79 -1 9 12 32 134 32 172 0 9
-48 48 -110 88 -60 40 -110 75 -110 78 0 6 128 24 247 36 60 7 65 9 116 63 29
31 66 74 81 94 16 20 34 37 40 37 7 0 27 -19 44 -42z m-768 -219 c0 -6 -4 -7
-10 -4 -5 3 -10 11 -10 16 0 6 5 7 10 4 6 -3 10 -11 10 -16z m25 -39 c3 -5 1
-10 -4 -10 -6 0 -11 5 -11 10 0 6 2 10 4 10 3 0 8 -4 11 -10z"/>
<path d="M4455 1743 c-90 -27 -119 -77 -71 -122 17 -16 201 -91 223 -91 11 0
0 -39 -13 -44 -31 -12 -113 -6 -142 11 -28 16 -32 16 -71 -1 -22 -11 -41 -23
-41 -28 0 -19 97 -51 166 -56 119 -8 234 41 234 98 0 40 -73 85 -185 115 -68
17 -85 29 -67 47 12 12 37 13 143 6 53 -3 87 16 68 38 -16 19 -104 44 -153 43
-23 0 -63 -7 -91 -16z"/>
<path d="M2193 1742 c-8 -5 -13 -57 -15 -160 -3 -172 -6 -167 78 -160 l39 3 2
50 c1 28 2 56 2 63 1 8 26 12 89 12 90 0 112 8 112 41 0 24 -20 29 -110 29
-81 0 -106 12 -94 44 5 13 23 16 108 16 104 0 126 7 126 41 0 9 -7 20 -16 23
-23 9 -307 7 -321 -2z"/>
<path d="M2672 1742 c-9 -6 -12 -46 -10 -163 l3 -154 36 -6 c20 -3 46 -2 58 3
21 7 21 12 19 165 l-3 158 -45 3 c-25 1 -51 -2 -58 -6z"/>
<path d="M2921 1743 c0 -12 244 -326 255 -330 5 -2 61 65 124 148 63 84 121
158 128 165 20 21 15 24 -48 24 -68 0 -72 -3 -141 -106 -47 -69 -73 -80 -94
-39 -5 12 -16 27 -23 35 -7 8 -28 36 -48 63 -35 47 -35 47 -94 47 -33 0 -60
-3 -59 -7z"/>
<path d="M3575 1741 c-6 -6 -9 -74 -7 -166 l3 -155 167 2 167 3 3 28 3 27
-105 0 c-96 0 -106 2 -116 21 -20 36 3 48 98 51 l87 3 0 30 0 30 -87 3 c-89 3
-117 15 -105 47 5 11 30 15 114 17 l108 3 0 30 0 30 -160 3 c-94 1 -165 -2
-170 -7z"/>
<path d="M4841 1728 c-13 -35 4 -47 72 -50 l62 -3 1 -124 c1 -134 4 -141 59
-141 55 0 58 7 59 141 l1 124 60 3 c65 3 85 14 80 40 -2 9 -4 20 -4 25 -1 4
-87 7 -191 7 -189 0 -191 0 -199 -22z"/>
<path d="M5400 1603 c-63 -82 -121 -153 -129 -159 -24 -19 -2 -34 49 -34 37 0
55 6 78 25 28 23 37 25 135 25 79 0 108 -4 114 -14 4 -7 18 -18 30 -25 24 -12
109 -15 116 -3 2 4 -42 66 -100 137 -57 72 -113 145 -126 162 -12 18 -29 33
-38 33 -8 0 -67 -66 -129 -147z m159 -37 c29 -31 20 -46 -29 -46 -48 0 -55 10
-29 44 25 32 30 32 58 2z"/>
<path d="M5937 1743 c-4 -3 -7 -78 -7 -165 l0 -158 25 -1 c14 -1 34 -1 45 -1
50 0 50 0 50 61 0 33 4 63 10 66 5 3 31 -14 57 -38 89 -81 97 -87 112 -88 9 0
37 -2 64 -4 26 -1 49 1 52 5 4 7 -79 84 -111 103 -22 13 -17 22 26 51 35 23
40 31 40 64 0 78 -75 112 -245 112 -61 0 -115 -3 -118 -7z m224 -73 c49 -27
-2 -75 -72 -68 -27 2 -35 8 -37 26 -6 41 5 52 48 52 23 0 50 -5 61 -10z"/>
<path d="M2187 1303 c-16 -4 -17 -16 -15 -111 3 -102 4 -107 26 -110 21 -3 26
4 23 39 -3 25 19 36 80 41 61 5 119 37 119 67 0 26 -36 59 -77 70 -38 11 -122
13 -156 4z m163 -41 c17 -13 21 -24 16 -40 -9 -26 -36 -34 -97 -30 -40 3 -44
6 -47 31 -6 48 3 57 57 57 32 0 56 -6 71 -18z"/>
<path d="M2598 1298 c-15 -11 -17 -28 -15 -113 2 -99 2 -100 27 -100 22 0 25
5 28 38 3 34 6 37 32 37 18 0 42 -11 62 -29 39 -33 71 -51 92 -51 25 0 18 13
-24 44 -22 17 -40 33 -40 37 0 4 14 16 30 26 44 26 48 50 13 85 -27 27 -38 30
-109 35 -57 3 -84 1 -96 -9z m150 -34 c27 -19 29 -50 3 -64 -11 -5 -40 -10
-65 -10 l-46 0 0 45 0 45 43 0 c23 0 53 -7 65 -16z"/>
<path d="M3095 1299 c-61 -14 -115 -63 -115 -103 0 -111 251 -158 350 -66 53
50 33 118 -46 158 -31 16 -143 23 -189 11z m162 -39 c48 -21 73 -61 57 -88 -6
-9 -26 -27 -44 -39 -41 -28 -132 -31 -184 -7 -143 69 26 200 171 134z"/>
<path d="M3992 1298 c-16 -16 -15 -126 1 -158 26 -52 134 -75 211 -46 57 22
68 45 64 136 -3 67 -5 75 -23 75 -18 0 -20 -8 -23 -75 -4 -96 -23 -120 -93
-120 -73 0 -88 18 -91 115 -2 62 -6 80 -18 83 -9 1 -21 -3 -28 -10z"/>
<path d="M4555 1301 c-66 -17 -116 -54 -130 -99 -10 -32 56 -96 115 -112 80
-22 231 3 201 33 -8 8 -20 8 -44 -1 -81 -29 -200 1 -213 55 -8 32 19 70 64 89
36 15 72 15 166 -2 30 -5 38 -4 34 7 -9 28 -126 46 -193 30z"/>
<path d="M4877 1304 c-14 -15 7 -24 53 -24 l49 0 3 -97 c3 -97 3 -98 28 -98
25 0 25 2 30 95 l5 95 48 3 c33 2 47 7 47 18 0 11 -23 14 -128 14 -71 0 -132
-3 -135 -6z"/>
<path d="M5304 1297 c-2 -7 -3 -58 -2 -113 3 -91 5 -99 23 -99 18 0 20 8 25
103 3 59 1 107 -4 113 -14 13 -36 11 -42 -4z"/>
<path d="M5628 1301 c-20 -4 -53 -20 -72 -35 -60 -45 -61 -105 -3 -144 66 -44
153 -54 243 -27 163 48 114 198 -69 210 -34 2 -79 0 -99 -4z m156 -41 c115
-49 57 -150 -85 -150 -56 0 -116 27 -138 62 -11 18 -10 25 6 47 44 59 135 77
217 41z"/>
<path d="M6324 1298 c-4 -6 -6 -40 -5 -75 2 -54 0 -63 -15 -63 -10 0 -26 7
-36 17 -10 9 -27 21 -37 27 -11 6 -47 30 -80 54 -91 63 -92 62 -89 -65 3 -100
4 -108 23 -108 18 0 20 8 23 68 4 82 16 91 69 50 72 -56 164 -114 175 -111 17
6 23 198 7 209 -19 12 -27 11 -35 -3z"/>
<path d="M3534 1287 c-3 -8 -3 -56 -2 -108 l3 -94 65 -3 c138 -7 230 36 230
107 0 41 -21 66 -77 95 -42 21 -211 23 -219 3z m169 -23 c82 -28 101 -85 44
-128 -29 -22 -45 -26 -100 -26 l-67 0 0 79 c0 54 4 81 13 84 24 10 64 7 110
-9z"/>
</g>
</svg>
