<svg xmlns="http://www.w3.org/2000/svg" width="800" height="571" viewBox="0 0 800 571" version="1.1"><path d="M 603.215 103.332 C 601 106.265, 597.254 110.877, 594.889 113.582 C 587.982 121.483, 561.064 148.066, 554.198 153.767 L 547.896 159 497.662 159 L 447.427 159 441.859 165.250 C 425.245 183.899, 423.665 186, 426.259 186 C 428.641 186, 432.188 182.689, 443.692 169.724 L 447.883 165 491.442 164.821 C 515.399 164.723, 535.975 164.611, 537.167 164.571 C 540.191 164.472, 540.646 166.788, 537.831 167.952 C 536.549 168.482, 533.491 170.735, 531.036 172.958 C 528.581 175.181, 526.234 177, 525.821 177 C 525.408 177, 523.590 178.238, 521.782 179.750 C 519.973 181.262, 517.733 182.950, 516.803 183.500 C 515.873 184.050, 509.349 188.368, 502.306 193.096 C 479.930 208.115, 460.694 219.162, 436 231.177 L 423.500 237.259 414.409 236.620 C 389.918 234.901, 360.128 240.794, 338.878 251.562 L 333.874 254.098 308.837 245.867 C 283.718 237.610, 280.500 237.055, 280.500 240.983 C 280.500 242.113, 289.438 245.781, 297.500 247.959 C 300.753 248.838, 303.373 249.722, 306.500 250.996 C 311.921 253.206, 331.327 258.999, 333.278 258.990 C 334.500 258.985, 337.975 257.821, 341 256.403 C 355.973 249.388, 371.971 244.782, 387.303 243.072 C 399.757 241.684, 410.276 241.672, 409.818 243.047 C 409.346 244.462, 378.994 256.483, 357.197 263.887 C 337.238 270.668, 327.151 273.740, 308 278.872 C 303.875 279.977, 299.600 281.124, 298.500 281.422 C 288.292 284.179, 255.268 291.341, 245.500 292.916 C 242.200 293.448, 235.675 294.576, 231 295.423 C 226.325 296.270, 221.262 296.971, 219.750 296.982 C 217.659 296.996, 217 297.486, 217 299.031 C 217 300.149, 217.675 301.322, 218.500 301.638 C 219.325 301.955, 220 302.772, 220 303.454 C 220 304.136, 220.900 305.732, 222 307 C 224.525 309.911, 224.504 310.422, 221.786 312.226 C 219.647 313.646, 219.630 313.787, 221.286 316.313 C 222.229 317.752, 223 319.432, 223 320.045 C 223 324.018, 237.177 340.445, 245.541 346.163 C 247.421 347.449, 249.459 349.705, 250.071 351.178 C 250.682 352.650, 252.042 354.633, 253.091 355.583 C 254.141 356.533, 255 357.694, 255 358.164 C 255 358.633, 256.350 360.881, 258 363.159 C 259.650 365.436, 261 367.702, 261 368.192 C 261 368.683, 261.474 369.628, 262.052 370.292 C 262.631 370.956, 264.945 374.356, 267.194 377.847 C 272.331 385.819, 269.270 386.191, 300.878 373.759 L 311.255 369.677 322.378 371.089 C 338.602 373.147, 382.793 372.853, 398.500 370.581 C 405.100 369.627, 413.200 368.475, 416.500 368.022 C 432.302 365.853, 467.807 356.136, 480.500 350.506 C 482.150 349.774, 487.100 347.586, 491.500 345.643 C 507.485 338.586, 526.198 327.343, 538.835 317.205 C 552.402 306.320, 567.208 288.614, 574.128 275 C 577.822 267.732, 580 262.026, 580 259.614 C 580 258.241, 580.450 256.840, 581 256.500 C 581.550 256.160, 581.961 252.871, 581.914 249.191 L 581.829 242.500 579.996 249.587 C 571.020 284.292, 543.530 313.654, 499.173 335.913 C 453.641 358.762, 392.141 370.144, 334.750 366.344 C 329.388 365.989, 325 365.416, 325 365.072 C 325 364.727, 328.038 363.158, 331.750 361.586 C 344.275 356.280, 388.406 334.216, 401 326.964 C 437.076 306.189, 474.024 280.097, 498.152 258.356 C 507.732 249.723, 535.957 221.234, 541.031 215.075 C 543.489 212.092, 546.200 208.942, 547.055 208.075 C 549.537 205.561, 555 198.281, 555 197.488 C 555 197.090, 556.237 195.287, 557.750 193.483 C 559.263 191.678, 562.075 187.875, 564 185.031 C 565.925 182.187, 567.970 179.329, 568.544 178.680 C 569.119 178.031, 571.289 174.688, 573.367 171.250 C 577.570 164.297, 576.191 164.776, 591.369 164.997 C 599.273 165.112, 600.496 164.882, 602.619 162.888 C 603.928 161.658, 605 160.261, 605 159.783 C 605 159.306, 605.474 158.372, 606.052 157.708 C 607.585 155.948, 622.845 131.780, 631.755 117 C 634.241 112.875, 637.155 108.528, 638.228 107.339 C 640.205 105.151, 640.343 101.946, 638.487 101.328 C 637.630 101.043, 633.232 106.863, 629.505 113.211 C 628.952 114.153, 625.905 119.103, 622.733 124.211 C 619.561 129.320, 616.418 134.400, 615.748 135.500 C 615.077 136.600, 612.385 140.776, 609.765 144.780 C 607.144 148.784, 605 152.388, 605 152.790 C 605 153.192, 603.857 154.753, 602.460 156.260 C 600.084 158.822, 599.381 159, 591.626 159 C 587.065 159, 583.086 158.753, 582.783 158.450 C 582.481 158.148, 585.024 152.841, 588.434 146.657 C 591.845 140.474, 597.212 129.358, 600.363 121.957 C 603.513 114.556, 606.970 106.575, 608.045 104.223 C 610.362 99.154, 610.469 98, 608.620 98 C 607.861 98, 605.429 100.399, 603.215 103.332 M 537.500 176 C 535.680 177.899, 533.624 179, 531.895 179 C 525.852 179, 524.308 181.073, 528.750 183.220 C 530.968 184.292, 531.500 185.222, 531.500 188.024 C 531.500 191.159, 531.745 191.465, 534 191.147 C 537.215 190.694, 544.786 190.694, 547.998 191.147 C 550.265 191.467, 550.467 191.205, 550.179 188.311 C 549.911 185.615, 550.336 184.878, 552.931 183.536 C 554.619 182.663, 556 181.558, 556 181.081 C 556 179.892, 553.411 179, 549.957 179 C 547.295 179, 543 175.797, 543 173.811 C 543 172.050, 540.227 173.153, 537.500 176 M 496.731 206.474 C 493.532 210.216, 492.247 210.974, 488.231 211.486 C 477.287 212.879, 476.780 213.029, 478.011 214.514 C 478.648 215.281, 481.157 217.074, 483.585 218.497 C 488.336 221.281, 488.514 221.722, 487.010 226.966 C 485.560 232.020, 486.929 232.688, 493.545 230.156 C 500.526 227.484, 503.545 227.456, 510 230 C 512.791 231.100, 515.557 232, 516.148 232 C 517.161 232, 516.695 226.976, 515.360 223.495 C 514.894 222.282, 517.842 219.680, 524.640 215.302 C 526.256 214.261, 526.303 213.968, 525 213.067 C 524.175 212.497, 521.617 212.024, 519.315 212.015 C 512.389 211.990, 509.201 210.305, 505.568 204.750 C 503.086 200.955, 501.122 201.338, 496.731 206.474 M 442.779 244.886 C 439.351 249.479, 438.748 249.839, 432.734 250.886 C 429.215 251.499, 425.136 252, 423.668 252 C 422.201 252, 421 252.365, 421 252.812 C 421 253.771, 426.531 258, 427.785 258 C 428.262 258, 429.600 259.012, 430.760 260.250 C 432.655 262.271, 432.765 262.991, 431.839 267.321 C 431.272 269.972, 431.058 272.391, 431.363 272.697 C 431.669 273.002, 435.464 272.018, 439.797 270.510 L 447.675 267.767 455.440 270.447 C 459.711 271.921, 463.413 272.920, 463.667 272.667 C 463.920 272.413, 463.713 269.921, 463.205 267.130 C 462.177 261.471, 462.129 261.547, 469.750 256.684 C 472.087 255.192, 474 253.628, 474 253.207 C 474 252.787, 470.066 251.907, 465.258 251.251 C 459.352 250.446, 456.126 249.525, 455.312 248.413 C 452.968 245.206, 447.941 240, 447.189 240 C 446.770 240, 444.785 242.199, 442.779 244.886 M 376.385 275.750 C 369.331 284.441, 370.073 284.048, 357.345 285.859 C 350.830 286.786, 345.599 287.892, 345.721 288.316 C 345.842 288.740, 349.330 291.376, 353.471 294.174 C 361.777 299.785, 362.092 300.550, 359.941 309.882 C 359.385 312.292, 359.129 314.462, 359.371 314.704 C 359.613 314.946, 364.291 313.762, 369.766 312.072 C 375.242 310.382, 380.522 309, 381.500 309 C 382.478 309, 387.758 310.382, 393.234 312.072 C 398.709 313.762, 403.434 314.900, 403.733 314.601 C 404.031 314.302, 403.781 312.132, 403.177 309.779 C 400.449 299.164, 400.080 300.093, 409.442 294 C 414.089 290.975, 417.578 288.223, 417.196 287.884 C 416.813 287.545, 412.225 286.719, 407 286.050 C 393.306 284.295, 393.514 284.389, 387.839 277.395 C 384.986 273.878, 382.109 271, 381.446 271 C 380.783 271, 378.506 273.137, 376.385 275.750 M 293.760 301.348 C 285.029 312.488, 286.122 311.937, 268.318 314.179 C 253.572 316.035, 251.017 316.527, 252.083 317.303 C 252.312 317.470, 257.081 320.649, 262.681 324.368 C 268.280 328.086, 273.291 331.662, 273.815 332.314 C 274.433 333.082, 274.119 336.671, 272.924 342.500 C 271.909 347.450, 271.061 351.890, 271.039 352.367 C 270.989 353.476, 272.869 353.056, 287.715 348.636 C 294.434 346.636, 300.658 345, 301.546 345 C 302.435 345, 308.413 346.632, 314.831 348.627 C 321.249 350.621, 327.809 352.483, 329.410 352.763 C 331.940 353.207, 332.225 353.028, 331.594 351.387 C 330.427 348.350, 327.920 332.938, 328.453 332.076 C 328.721 331.642, 333.679 328.231, 339.470 324.496 C 345.262 320.760, 350 317.372, 350 316.967 C 350 316.139, 338.331 314.327, 327 313.396 L 319.500 312.780 312.268 305.233 C 308.290 301.082, 304.772 296.857, 304.450 295.843 C 303.221 291.970, 299.681 293.793, 293.760 301.348 M 224 314.500 C 224 314.775, 224.225 315, 224.500 315 C 224.775 315, 225 314.775, 225 314.500 C 225 314.225, 224.775 314, 224.500 314 C 224.225 314, 224 314.225, 224 314.500 M 226.027 317.760 C 226.012 319.003, 226.900 320.790, 228 321.732 C 229.100 322.674, 230 323.813, 230 324.264 C 230 325.653, 233.938 329.395, 234.650 328.683 C 235.019 328.314, 234.574 327.187, 233.661 326.177 C 232.747 325.168, 231.988 323.928, 231.973 323.421 C 231.958 322.915, 230.620 320.925, 229 319 C 226.297 315.789, 226.052 315.687, 226.027 317.760 M 448.500 395.610 C 440.552 397.607, 436 401.021, 436 404.986 C 436 408.576, 439.930 411.293, 449.880 414.581 C 454.326 416.051, 458.759 417.871, 459.732 418.626 C 461.414 419.933, 461.406 420.073, 459.559 421.500 C 457.068 423.425, 448.970 423.445, 446.441 421.532 C 443.864 419.582, 440.234 419.692, 436.201 421.843 C 433.064 423.516, 432.990 423.681, 434.701 425.223 C 441.979 431.785, 464.558 431.521, 471.722 424.792 C 477.794 419.087, 472.517 413.090, 457.846 409.025 C 450.258 406.922, 448.367 405.834, 449.399 404.164 C 450.587 402.241, 455.724 401.858, 459.449 403.414 C 462.743 404.791, 463.496 404.785, 467.052 403.362 C 472.005 401.381, 472.069 399.477, 467.250 397.446 C 463.400 395.823, 452.066 394.713, 448.500 395.610 M 217.689 396.644 C 217.310 397.023, 217 404.438, 217 413.121 L 217 428.909 220.342 429.536 C 222.180 429.881, 224.993 430.014, 226.592 429.832 C 229.410 429.510, 229.516 429.298, 230 423 L 230.500 416.500 240 416 L 249.500 415.500 249.500 412.500 L 249.500 409.500 242 409.247 C 231.447 408.891, 229.803 408.400, 230.185 405.715 C 230.483 403.618, 231.084 403.473, 241.500 403 L 252.500 402.500 252.500 399.500 L 252.500 396.500 235.439 396.227 C 226.056 396.077, 218.069 396.265, 217.689 396.644 M 266.710 396.623 C 266.320 397.014, 266 404.410, 266 413.060 C 266 430.343, 265.871 430, 272.391 430 C 278.818 430, 279.086 429.244, 278.777 411.993 L 278.500 396.500 272.960 396.206 C 269.913 396.045, 267.101 396.232, 266.710 396.623 M 292 397.500 C 292 398.325, 292.461 399, 293.025 399 C 293.588 399, 294.477 400.125, 295 401.500 C 295.523 402.875, 296.412 404, 296.975 404 C 297.539 404, 298 404.689, 298 405.531 C 298 406.374, 298.675 407.322, 299.500 407.638 C 300.325 407.955, 301.010 408.728, 301.023 409.357 C 301.036 409.986, 302.498 412.136, 304.273 414.136 C 306.048 416.136, 308.175 418.779, 309 420.009 C 309.825 421.239, 310.956 422.752, 311.513 423.373 C 312.070 423.993, 313.318 425.738, 314.286 427.250 C 315.254 428.762, 316.823 429.982, 317.773 429.961 C 318.813 429.937, 324.267 423.573, 331.486 413.961 C 338.078 405.182, 343.842 398, 344.295 398 C 344.747 398, 344.840 397.550, 344.500 397 C 343.791 395.853, 333.041 395.660, 331.429 396.765 C 329.690 397.959, 320 410.851, 320 411.971 C 320 414.312, 316.075 412.794, 314.255 409.750 C 313.187 407.962, 310.432 404.137, 308.133 401.250 L 303.953 396 297.977 396 C 293.331 396, 292 396.334, 292 397.500 M 356.689 396.644 C 355.424 397.910, 355.893 427.493, 357.200 428.800 C 358.027 429.627, 363.091 430, 373.509 430 C 389.521 430, 392.576 429.239, 391.847 425.434 C 391.519 423.716, 390.473 423.472, 382.489 423.250 C 369.981 422.903, 368.803 422.545, 369.187 419.215 C 369.498 416.515, 369.552 416.497, 379 416 L 388.500 415.500 388.500 412.500 L 388.500 409.500 379 409 C 369.667 408.509, 369.500 408.456, 369.500 406 C 369.500 403.515, 369.567 403.497, 380.500 403 L 391.500 402.500 391.500 399.500 L 391.500 396.500 374.439 396.227 C 365.056 396.077, 357.069 396.265, 356.689 396.644 M 483.392 397.420 C 481.881 401.358, 483.304 402.484, 490.436 403 L 497.354 403.500 497.106 415.677 C 496.828 429.285, 497.190 430.017, 504.184 429.985 C 509.707 429.959, 509.911 429.485, 510.218 415.961 L 510.500 403.500 517 403 C 523.444 402.504, 523.500 402.474, 523.500 399.500 L 523.500 396.500 503.727 396.229 C 487.122 396.001, 483.864 396.192, 483.392 397.420 M 544.943 404.250 C 541.475 408.788, 537.931 413.266, 537.068 414.202 C 536.206 415.138, 535.050 416.493, 534.500 417.212 C 533.950 417.932, 531.784 420.651, 529.688 423.255 C 527.591 425.859, 526.155 428.441, 526.497 428.994 C 526.838 429.548, 529.389 430, 532.165 430 C 536.089 430, 537.872 429.444, 540.182 427.500 C 542.912 425.203, 543.954 425, 553.025 425 C 562.169 425, 563.096 425.184, 565.595 427.500 C 567.766 429.512, 569.325 430, 573.587 430 C 579.056 430, 581.365 428.519, 578.891 426.598 C 578.113 425.994, 575.037 422.350, 572.055 418.500 C 569.073 414.650, 566.265 411.350, 565.816 411.167 C 565.367 410.983, 565 410.218, 565 409.466 C 565 408.715, 564.404 407.740, 563.676 407.300 C 562.948 406.860, 561.260 404.956, 559.926 403.069 C 556.483 398.199, 554.212 396, 552.625 396 C 551.869 396, 548.412 399.712, 544.943 404.250 M 593 412.393 C 593 430.607, 592.758 430, 600.023 430 C 604.761 430, 605.386 429.070, 605.116 422.418 C 605 419.536, 605.379 416.884, 605.960 416.525 C 606.540 416.166, 609.599 418.301, 612.758 421.268 C 621.235 429.234, 622.675 430, 629.163 430 C 632.309 430, 635.129 429.601, 635.430 429.113 C 635.732 428.625, 633.575 426.372, 630.638 424.106 C 627.701 421.840, 624.496 419.101, 623.517 418.019 C 621.794 416.115, 621.821 416.019, 624.328 415.065 C 631.459 412.354, 633.135 405.837, 627.926 401.080 C 623.503 397.040, 618.838 396, 605.134 396 L 593 396 593 412.393 M 605.390 404.427 C 605.088 405.212, 604.990 406.900, 605.171 408.177 C 605.429 410.002, 606.223 410.569, 608.869 410.822 C 616.246 411.528, 621.337 406.219, 615.435 403.975 C 611.598 402.517, 606.027 402.767, 605.390 404.427 M 550.402 414.507 C 547.292 417.617, 548.277 418.959, 553.691 418.985 C 557.977 419.005, 558.530 417.675, 555.565 414.475 L 553.097 411.812 550.402 414.507 M 217 451.447 L 217 463.133 219.750 462.816 C 222.013 462.556, 222.554 461.948, 222.803 459.387 C 223.098 456.355, 223.266 456.257, 229.249 455.632 C 237.337 454.786, 242.167 451.689, 241.777 447.599 C 241.295 442.549, 237.390 440.653, 226.488 440.176 L 217 439.761 217 451.447 M 259.250 440.603 C 258.361 441.004, 258 444.317, 258 452.083 L 258 463 260.940 463 C 263.615 463, 263.907 462.663, 264.190 459.250 C 264.485 455.685, 264.666 455.508, 267.859 455.659 C 270.062 455.764, 272.298 456.841, 274.359 458.789 C 278.445 462.654, 281.067 463.906, 283.341 463.079 C 284.952 462.494, 284.712 462.009, 281.430 459.205 C 279.366 457.442, 277.300 456, 276.839 456 C 275.059 456, 276.158 454.402, 279.507 452.121 C 283.783 449.209, 283.898 447.234, 280.009 443.508 C 277.283 440.897, 276.284 440.616, 268.759 440.341 C 264.216 440.176, 259.938 440.294, 259.250 440.603 M 311.500 440.427 C 310.950 440.646, 309.271 441.096, 307.768 441.427 C 306.266 441.758, 303.453 443.419, 301.518 445.118 C 298.677 447.612, 298 448.924, 298 451.929 C 298 456.530, 300.570 459.128, 307.500 461.535 C 317.184 464.899, 328.007 463.193, 333.810 457.390 C 336.724 454.476, 337.147 453.486, 336.615 450.824 C 335.809 446.794, 334.523 445.307, 329.728 442.861 C 326.148 441.035, 314.035 439.417, 311.500 440.427 M 398.667 440.667 C 398.300 441.033, 398 444.818, 398 449.078 C 398 456.386, 398.163 456.959, 400.884 459.249 C 402.469 460.583, 405.833 462.253, 408.359 462.961 C 412.331 464.072, 413.664 464.015, 418.226 462.533 C 426.451 459.860, 427 459.034, 427 449.314 C 427 442.631, 426.683 440.816, 425.433 440.336 C 422.666 439.274, 421.670 441.673, 421.902 448.839 C 422.111 455.287, 421.944 455.899, 419.428 457.878 C 415.787 460.742, 409.186 460.754, 406.125 457.902 C 404.165 456.076, 403.901 454.927, 404.091 449.057 C 404.211 445.346, 403.989 441.790, 403.596 441.155 C 402.820 439.900, 399.739 439.594, 398.667 440.667 M 454.500 440.868 C 450.020 442.040, 447.502 443.614, 444.608 447.054 C 441.450 450.807, 441.384 452.682, 444.286 456.131 C 447.073 459.442, 451.497 461.699, 457.887 463.069 C 461.942 463.939, 464.008 463.821, 468.937 462.438 C 472.861 461.337, 475 460.214, 475 459.255 C 475 458.107, 474.268 457.930, 471.750 458.470 C 462.864 460.375, 457.158 460.217, 453.132 457.954 C 446.371 454.154, 447.055 448.190, 454.636 444.837 C 459.325 442.763, 459.606 442.759, 471.250 444.620 C 475.326 445.271, 476.378 443.808, 473.095 442.051 C 470.526 440.676, 458.226 439.893, 454.500 440.868 M 487.496 441.007 C 486.706 442.285, 488.370 442.863, 493.863 443.218 L 498.227 443.500 498.363 453 L 498.500 462.500 501.213 462.813 L 503.926 463.126 504.213 453.313 L 504.500 443.500 509.250 443.195 C 512.585 442.981, 514 442.460, 514 441.445 C 514 440.259, 511.677 440, 501.059 440 C 493.450 440, 487.862 440.415, 487.496 441.007 M 530.709 440.624 C 530.319 441.014, 530 446.238, 530 452.233 L 530 463.133 532.750 462.816 L 535.500 462.500 535.500 451.500 C 535.500 441.188, 535.372 440.482, 533.459 440.208 C 532.336 440.047, 531.099 440.235, 530.709 440.624 M 562.245 440.914 C 554.278 442.958, 548.728 449.681, 551.153 454.349 C 553.170 458.229, 556.089 460.221, 562.639 462.186 C 568.258 463.872, 569.831 463.971, 574.797 462.949 C 584.534 460.946, 590 456.805, 590 451.432 C 590 448.221, 587.239 445.292, 581.199 442.093 C 578.281 440.548, 566.522 439.817, 562.245 440.914 M 606.500 440.646 C 605.678 440.935, 605.508 447.923, 605.974 462.316 C 605.988 462.765, 607.237 462.990, 608.750 462.816 C 611.434 462.508, 611.503 462.337, 611.633 455.701 C 611.706 451.961, 611.999 448.668, 612.285 448.382 C 612.570 448.096, 617.848 451.264, 624.014 455.421 C 630.179 459.578, 635.623 462.733, 636.112 462.431 C 637.352 461.664, 637.240 441.266, 635.991 440.494 C 635.436 440.152, 634.029 440.173, 632.864 440.543 C 630.910 441.163, 630.785 441.746, 631.240 448.108 C 631.584 452.916, 631.386 455, 630.585 455 C 629.953 455, 625.176 451.938, 619.968 448.195 C 610.174 441.156, 608.198 440.049, 606.500 440.646 M 352.954 442.250 C 352.710 448.955, 352.951 462.284, 353.323 462.657 C 354.787 464.121, 364.676 464.050, 370.875 462.531 C 379.504 460.416, 383.449 456.853, 383.292 451.314 C 383.179 447.325, 381.110 445.084, 375.128 442.472 C 370.755 440.563, 353.022 440.385, 352.954 442.250 M 223.667 443.667 C 223.300 444.033, 223 446.058, 223 448.167 L 223 452 227.889 452 C 231.321 452, 233.482 451.405, 235.139 450.003 L 237.500 448.006 234.694 445.503 C 231.982 443.083, 225.354 441.980, 223.667 443.667 M 264.667 443.667 C 264.300 444.033, 264 446.058, 264 448.167 L 264 452 268.277 452 C 272.790 452, 277 449.828, 277 447.500 C 277 445.301, 272.881 443, 268.944 443 C 266.958 443, 265.033 443.300, 264.667 443.667 M 309.251 444.973 C 304.236 447.249, 302.216 450.667, 303.961 453.927 C 308.270 461.979, 325.011 462.140, 330.585 454.183 C 332.814 450.999, 330.666 447.533, 324.935 445.067 C 318.981 442.506, 314.741 442.481, 309.251 444.973 M 562.251 444.973 C 557.460 447.147, 554.956 451.106, 556.648 453.828 C 558.958 457.543, 564.149 460, 569.688 460 C 583.284 460, 589.120 450.097, 578.473 445.092 C 572.958 442.500, 567.782 442.462, 562.251 444.973 M 358.667 444.667 C 358.300 445.033, 358 448.633, 358 452.667 L 358 460 364.250 459.996 C 368.698 459.994, 371.429 459.426, 373.723 458.027 C 379.584 454.454, 378.946 448.129, 372.452 445.415 C 368.982 443.966, 359.863 443.470, 358.667 444.667" stroke="none" fill="#100f0c" fill-rule="evenodd"/><path d="M 402.754 94.823 C 399.280 95.718, 396.771 97.793, 391.387 104.224 C 388.149 108.092, 377.175 121.038, 367 132.994 C 356.825 144.950, 343.100 161.146, 336.500 168.986 C 329.900 176.825, 323.850 183.916, 323.055 184.744 C 322.260 185.571, 312.644 196.654, 301.686 209.374 C 281.546 232.751, 276.592 240.073, 279.211 242.588 C 280.485 243.812, 295.054 248.852, 320.691 256.938 L 333.883 261.098 341.191 257.696 C 357.024 250.325, 376.270 245.370, 393 244.357 C 398.775 244.008, 403.275 243.968, 403 244.270 C 402.725 244.572, 399.800 245.740, 396.500 246.866 C 393.200 247.993, 385.325 250.788, 379 253.078 C 331.598 270.239, 294.883 281.120, 262.500 287.605 C 258.100 288.486, 252.475 289.634, 250 290.156 C 247.525 290.678, 240.550 291.978, 234.500 293.045 C 216.658 296.192, 216.540 296.232, 216.196 299.160 C 216.028 300.584, 216.478 302.385, 217.196 303.163 C 220.085 306.296, 221.068 309.005, 220.023 310.957 C 218.773 313.293, 218.683 317.686, 219.870 318.420 C 220.348 318.715, 222.036 321.543, 223.620 324.704 C 226.515 330.481, 238.501 343.410, 243.937 346.622 C 245.442 347.511, 247.528 349.872, 248.573 351.869 C 249.618 353.866, 252.391 358.287, 254.736 361.693 C 257.081 365.099, 259 368.097, 259 368.355 C 259 368.800, 264.997 378.297, 266.703 380.555 C 267.141 381.135, 267.998 382.485, 268.607 383.555 C 269.216 384.625, 270.465 385.648, 271.384 385.828 C 272.302 386.009, 281.802 382.718, 292.495 378.515 C 311.735 370.952, 312.012 370.878, 319.218 371.388 C 325.178 371.809, 325.683 371.744, 322 371.026 C 314.021 369.470, 310.686 369.918, 300.500 373.916 C 269.269 386.173, 272.326 385.813, 267.194 377.847 C 264.945 374.356, 262.631 370.956, 262.052 370.292 C 261.474 369.628, 261 368.683, 261 368.192 C 261 367.702, 259.650 365.436, 258 363.159 C 256.350 360.881, 255 358.633, 255 358.164 C 255 357.694, 254.141 356.533, 253.091 355.583 C 252.042 354.633, 250.682 352.650, 250.071 351.178 C 249.459 349.705, 247.421 347.449, 245.541 346.163 C 237.177 340.445, 223 324.018, 223 320.045 C 223 319.432, 222.229 317.752, 221.286 316.313 C 219.630 313.787, 219.647 313.646, 221.786 312.226 C 224.504 310.422, 224.525 309.911, 222 307 C 220.900 305.732, 220 304.136, 220 303.454 C 220 302.772, 219.325 301.955, 218.500 301.638 C 217.675 301.322, 217 300.149, 217 299.031 C 217 297.486, 217.659 296.996, 219.750 296.982 C 221.262 296.971, 226.325 296.270, 231 295.423 C 235.675 294.576, 242.200 293.448, 245.500 292.916 C 255.268 291.341, 288.292 284.179, 298.500 281.422 C 299.600 281.124, 303.875 279.977, 308 278.872 C 327.151 273.740, 337.238 270.668, 357.197 263.887 C 378.994 256.483, 409.346 244.462, 409.818 243.047 C 410.276 241.672, 399.757 241.684, 387.303 243.072 C 371.971 244.782, 355.973 249.388, 341 256.403 C 337.975 257.821, 334.500 258.985, 333.278 258.990 C 331.327 258.999, 311.921 253.206, 306.500 250.996 C 303.373 249.722, 300.753 248.838, 297.500 247.959 C 289.438 245.781, 280.500 242.113, 280.500 240.983 C 280.500 237.055, 283.718 237.610, 308.837 245.867 L 333.874 254.098 338.878 251.562 C 360.128 240.794, 389.918 234.901, 414.409 236.620 L 423.500 237.259 436 231.177 C 460.694 219.162, 479.930 208.115, 502.306 193.096 C 509.349 188.368, 515.873 184.050, 516.803 183.500 C 517.733 182.950, 519.973 181.262, 521.782 179.750 C 523.590 178.237, 525.408 177, 525.821 177 C 526.234 177, 528.581 175.181, 531.036 172.958 C 533.491 170.735, 536.549 168.482, 537.831 167.952 C 540.646 166.788, 540.191 164.472, 537.167 164.571 C 535.975 164.611, 515.399 164.723, 491.442 164.821 L 447.883 165 443.692 169.724 C 432.188 182.689, 428.641 186, 426.259 186 C 423.665 186, 425.245 183.899, 441.859 165.250 L 447.427 159 497.662 159 L 547.896 159 554.198 153.767 C 561.064 148.066, 587.982 121.483, 594.889 113.582 C 597.254 110.877, 601 106.265, 603.215 103.332 C 605.429 100.399, 607.861 98, 608.620 98 C 610.469 98, 610.362 99.154, 608.045 104.223 C 606.970 106.575, 603.513 114.556, 600.363 121.957 C 597.212 129.358, 591.845 140.474, 588.434 146.657 C 585.024 152.841, 582.481 158.148, 582.783 158.450 C 583.086 158.753, 587.065 159, 591.626 159 C 599.381 159, 600.084 158.822, 602.460 156.260 C 603.857 154.753, 605 153.192, 605 152.790 C 605 152.388, 607.144 148.784, 609.765 144.780 C 612.385 140.776, 615.077 136.600, 615.748 135.500 C 616.418 134.400, 619.561 129.320, 622.733 124.211 C 625.905 119.103, 628.959 114.153, 629.520 113.211 C 630.509 111.553, 635.809 103.496, 637.174 101.576 C 637.586 100.996, 638.379 101.069, 639.217 101.765 C 640.342 102.699, 640.515 102.283, 640.183 99.442 C 639.961 97.539, 639.271 95.668, 638.651 95.284 C 637.567 94.615, 405.326 94.161, 402.754 94.823 M 637.842 107.750 C 637.035 108.713, 635.616 110.737, 634.687 112.250 C 633.759 113.763, 632.242 116.237, 631.317 117.750 C 628.085 123.029, 631.920 118.449, 635.922 112.250 C 639.947 106.014, 640.620 104.437, 637.842 107.750 M 628.100 123.295 C 626.835 125.402, 626.857 125.423, 628.579 123.774 C 629.570 122.824, 630.166 121.832, 629.903 121.569 C 629.640 121.306, 628.829 122.083, 628.100 123.295 M 620.437 135.250 C 612.608 147.990, 607.302 156.273, 606.052 157.708 C 605.474 158.372, 605 159.306, 605 159.783 C 605 160.261, 603.928 161.658, 602.619 162.888 C 600.496 164.882, 599.273 165.112, 591.369 164.997 C 576.412 164.779, 577.501 164.464, 574.095 170 C 572.403 172.750, 571.422 175, 571.914 175 C 572.407 175, 573.997 172.975, 575.447 170.500 L 578.084 166 589.641 166 C 601.171 166, 601.204 165.993, 603.977 163.025 C 606.312 160.525, 613.041 149.928, 621.347 135.670 C 622.362 133.927, 624.087 131.037, 625.178 129.250 C 626.270 127.463, 626.929 126, 626.642 126 C 626.356 126, 623.563 130.162, 620.437 135.250 M 442.380 173.040 C 435.691 181.049, 434.559 183.498, 438.186 182.119 C 441.143 180.995, 455.473 179.265, 468.750 178.429 C 474.411 178.073, 487.508 178.364, 498.005 179.078 L 517.009 180.373 527.005 173.546 C 532.502 169.792, 537 166.558, 537 166.360 C 537 166.162, 517.034 166, 492.630 166 L 448.260 166 442.380 173.040 M 537.500 176 C 535.680 177.899, 533.624 179, 531.895 179 C 525.852 179, 524.308 181.073, 528.750 183.220 C 530.968 184.292, 531.500 185.222, 531.500 188.024 C 531.500 191.159, 531.745 191.465, 534 191.147 C 537.215 190.694, 544.786 190.694, 547.998 191.147 C 550.265 191.467, 550.467 191.205, 550.179 188.311 C 549.911 185.615, 550.336 184.878, 552.931 183.536 C 554.619 182.663, 556 181.558, 556 181.081 C 556 179.892, 553.411 179, 549.957 179 C 547.295 179, 543 175.797, 543 173.811 C 543 172.050, 540.227 173.153, 537.500 176 M 568.948 178.130 C 563.571 185.807, 559.823 190.921, 557.585 193.637 C 556.163 195.363, 555 197.098, 555 197.493 C 555 198.282, 549.529 205.569, 547.055 208.075 C 546.200 208.942, 543.489 212.092, 541.031 215.075 C 535.957 221.234, 507.732 249.723, 498.152 258.356 C 474.024 280.097, 437.076 306.189, 401 326.964 C 388.406 334.216, 344.275 356.280, 331.750 361.586 C 328.038 363.158, 325 364.727, 325 365.072 C 325 365.416, 329.387 365.989, 334.750 366.344 C 392.141 370.144, 453.641 358.762, 499.173 335.913 C 543.530 313.654, 571.020 284.292, 579.996 249.587 L 581.829 242.500 581.914 249.191 C 581.961 252.871, 581.550 256.160, 581 256.500 C 580.450 256.840, 580 258.241, 580 259.614 C 580 262.026, 577.822 267.732, 574.128 275 C 567.208 288.614, 552.402 306.320, 538.835 317.205 C 526.198 327.343, 507.485 338.586, 491.500 345.643 C 487.100 347.586, 482.068 349.817, 480.318 350.602 C 471.034 354.766, 438.610 364.061, 424.500 366.604 C 422.300 367, 421.017 367.499, 421.649 367.712 C 423.573 368.361, 448.713 362.357, 462.240 358.019 C 477.476 353.132, 503.846 341.938, 512.468 336.696 C 549.526 314.169, 571.512 290.145, 581.286 261.500 C 584.346 252.533, 584.362 232.714, 581.316 224.889 C 578.016 216.411, 573.702 210.213, 565.859 202.682 L 558.758 195.865 560.629 192.322 C 561.658 190.374, 563.063 188.557, 563.750 188.283 C 564.438 188.010, 565 187.227, 565 186.543 C 565 185.859, 566.383 183.391, 568.074 181.057 C 569.764 178.723, 570.978 176.645, 570.772 176.438 C 570.565 176.232, 569.745 176.993, 568.948 178.130 M 496.731 206.474 C 493.532 210.216, 492.247 210.974, 488.231 211.486 C 477.287 212.879, 476.780 213.029, 478.011 214.514 C 478.648 215.281, 481.157 217.074, 483.585 218.497 C 488.336 221.281, 488.514 221.722, 487.010 226.966 C 485.560 232.020, 486.929 232.688, 493.545 230.156 C 500.526 227.484, 503.545 227.456, 510 230 C 512.791 231.100, 515.557 232, 516.148 232 C 517.161 232, 516.695 226.976, 515.360 223.495 C 514.894 222.282, 517.842 219.680, 524.640 215.302 C 526.256 214.261, 526.303 213.968, 525 213.067 C 524.175 212.497, 521.617 212.024, 519.315 212.015 C 512.389 211.990, 509.201 210.305, 505.568 204.750 C 503.086 200.955, 501.122 201.338, 496.731 206.474 M 442.779 244.886 C 439.351 249.479, 438.748 249.839, 432.734 250.886 C 429.215 251.499, 425.136 252, 423.668 252 C 422.201 252, 421 252.365, 421 252.812 C 421 253.771, 426.531 258, 427.785 258 C 428.262 258, 429.600 259.012, 430.760 260.250 C 432.655 262.271, 432.765 262.991, 431.839 267.321 C 431.272 269.972, 431.058 272.391, 431.363 272.697 C 431.669 273.002, 435.464 272.018, 439.797 270.510 L 447.675 267.767 455.440 270.447 C 459.711 271.921, 463.413 272.920, 463.667 272.667 C 463.920 272.413, 463.713 269.921, 463.205 267.130 C 462.177 261.471, 462.129 261.547, 469.750 256.684 C 472.087 255.192, 474 253.628, 474 253.207 C 474 252.787, 470.066 251.907, 465.258 251.251 C 459.352 250.446, 456.126 249.525, 455.312 248.413 C 452.968 245.206, 447.941 240, 447.189 240 C 446.770 240, 444.785 242.199, 442.779 244.886 M 376.385 275.750 C 369.331 284.441, 370.073 284.048, 357.345 285.859 C 350.830 286.786, 345.599 287.892, 345.721 288.316 C 345.842 288.740, 349.330 291.376, 353.471 294.174 C 361.777 299.785, 362.092 300.550, 359.941 309.882 C 359.385 312.292, 359.129 314.462, 359.371 314.704 C 359.613 314.946, 364.291 313.762, 369.766 312.072 C 375.242 310.382, 380.522 309, 381.500 309 C 382.478 309, 387.758 310.382, 393.234 312.072 C 398.709 313.762, 403.434 314.900, 403.733 314.601 C 404.031 314.302, 403.781 312.132, 403.177 309.779 C 400.449 299.164, 400.080 300.093, 409.442 294 C 414.089 290.975, 417.578 288.223, 417.196 287.884 C 416.813 287.545, 412.225 286.719, 407 286.050 C 393.306 284.295, 393.514 284.389, 387.839 277.395 C 384.986 273.878, 382.109 271, 381.446 271 C 380.783 271, 378.506 273.137, 376.385 275.750 M 293.760 301.348 C 285.029 312.488, 286.122 311.937, 268.318 314.179 C 253.572 316.035, 251.017 316.527, 252.083 317.303 C 252.312 317.470, 257.081 320.649, 262.681 324.368 C 268.280 328.086, 273.291 331.662, 273.815 332.314 C 274.433 333.082, 274.119 336.671, 272.924 342.500 C 271.909 347.450, 271.061 351.890, 271.039 352.367 C 270.989 353.476, 272.869 353.056, 287.715 348.636 C 294.434 346.636, 300.658 345, 301.546 345 C 302.435 345, 308.413 346.632, 314.831 348.627 C 321.249 350.621, 327.809 352.483, 329.410 352.763 C 331.940 353.207, 332.225 353.028, 331.594 351.387 C 330.427 348.350, 327.920 332.938, 328.453 332.076 C 328.721 331.642, 333.679 328.231, 339.470 324.496 C 345.262 320.760, 350 317.372, 350 316.967 C 350 316.139, 338.331 314.327, 327 313.396 L 319.500 312.780 312.268 305.233 C 308.290 301.082, 304.772 296.857, 304.450 295.843 C 303.221 291.970, 299.681 293.793, 293.760 301.348 M 224 314.500 C 224 314.775, 224.225 315, 224.500 315 C 224.775 315, 225 314.775, 225 314.500 C 225 314.225, 224.775 314, 224.500 314 C 224.225 314, 224 314.225, 224 314.500 M 226.027 317.760 C 226.012 319.003, 226.900 320.790, 228 321.732 C 229.100 322.674, 230 323.813, 230 324.264 C 230 325.653, 233.938 329.395, 234.650 328.683 C 235.019 328.314, 234.574 327.187, 233.661 326.177 C 232.747 325.168, 231.988 323.928, 231.973 323.421 C 231.958 322.915, 230.620 320.925, 229 319 C 226.297 315.789, 226.052 315.687, 226.027 317.760 M 411.911 368.423 C 410.726 369.607, 382.985 372.297, 364.500 373.020 L 343.500 373.840 366 373.477 C 386.491 373.145, 405.257 371.455, 415 369.064 L 418.500 368.205 415.417 368.102 C 413.721 368.046, 412.143 368.190, 411.911 368.423 M 330.250 372.728 C 332.313 372.944, 335.688 372.944, 337.750 372.728 C 339.813 372.513, 338.125 372.336, 334 372.336 C 329.875 372.336, 328.188 372.513, 330.250 372.728 M 218.952 394.285 L 215.954 395.069 216.227 412.785 L 216.500 430.500 222.753 430.798 C 231.454 431.212, 232.500 430.420, 232.500 423.417 L 232.500 417.699 240.197 417.913 C 250.037 418.187, 252.216 417.112, 251.806 412.185 L 251.500 408.500 244 408.247 C 234.857 407.939, 231.738 407.285, 232.239 405.784 C 232.483 405.050, 236.349 404.540, 243.047 404.357 C 253.857 404.061, 256.025 403.174, 255.985 399.059 C 255.944 394.879, 254.664 394.518, 238.014 394 C 229.178 393.725, 220.600 393.853, 218.952 394.285 M 290.750 393.689 C 288.146 394.370, 288.627 397.382, 291.940 401.154 C 293.557 402.994, 299.335 410.350, 304.781 417.500 C 318.383 435.361, 317.216 435.434, 331.978 415.781 C 338.292 407.377, 344.254 399.912, 345.228 399.193 C 351.169 394.812, 341.874 391.241, 331.806 394.037 C 328.797 394.873, 327.255 396.352, 323.492 402.012 C 320.951 405.834, 318.500 409.191, 318.046 409.472 C 317.591 409.753, 316.529 408.974, 315.685 407.741 C 314.842 406.509, 313.105 404.271, 311.826 402.769 C 310.547 401.266, 308.706 398.923, 307.736 397.562 C 305.174 393.967, 296.904 392.081, 290.750 393.689 M 445.222 394.470 C 442.869 395.204, 439.381 396.997, 437.472 398.454 C 434.717 400.555, 434 401.800, 434 404.479 C 434 409.792, 436.488 411.589, 450.750 416.579 C 455.288 418.167, 459 419.791, 459 420.188 C 459 420.585, 457.330 421.223, 455.289 421.606 C 452.422 422.143, 450.728 421.812, 447.841 420.151 C 445.786 418.968, 443.237 418, 442.178 418 C 439.436 418, 430.842 423, 431.243 424.361 C 431.428 424.988, 434.261 426.850, 437.539 428.500 C 442.954 431.225, 444.370 431.494, 453 431.439 C 463.153 431.373, 469.105 429.551, 473.750 425.085 C 478.068 420.934, 476.148 415.151, 469.303 411.689 C 466.389 410.215, 458.511 407.622, 453.750 406.570 C 452.238 406.235, 451 405.520, 451 404.981 C 451 403.666, 456.614 403.735, 460.429 405.096 C 462.938 405.992, 464.416 405.830, 468.500 404.214 C 471.250 403.125, 473.500 401.638, 473.500 400.907 C 473.500 399.154, 467.660 395.278, 463.118 394.016 C 458.212 392.653, 450.405 392.851, 445.222 394.470 M 487.500 393.415 C 486.950 393.641, 485.262 394.098, 483.750 394.432 C 481.321 394.967, 481 395.495, 481 398.960 C 481 403.593, 481.302 403.847, 487.072 404.065 C 494.939 404.361, 494.535 403.636, 494.194 416.817 C 493.824 431.144, 494.102 431.568, 503.741 431.363 C 507.280 431.287, 510.671 430.729, 511.277 430.123 C 511.952 429.448, 512.402 424.276, 512.439 416.761 L 512.500 404.500 517.970 404.190 C 520.978 404.020, 524.016 403.402, 524.720 402.818 C 526.387 401.434, 526.368 396.551, 524.691 395.158 C 523.433 394.115, 489.656 392.532, 487.500 393.415 M 550.454 393.944 C 549.329 394.406, 547.122 396.729, 545.549 399.105 C 543.976 401.482, 540.306 406.236, 537.393 409.670 C 534.479 413.104, 531.445 417.172, 530.650 418.709 C 529.855 420.247, 528.217 422.399, 527.010 423.491 C 520.825 429.089, 522.391 432, 531.588 432 C 537.209 432, 538.319 431.659, 541.347 429 C 544.513 426.221, 545.332 426, 552.488 426 C 559.234 426, 560.581 426.311, 563.135 428.460 C 566.409 431.215, 570.711 432.302, 576.443 431.823 C 581.950 431.362, 583.219 428.890, 579.800 425.286 C 578.345 423.754, 574.426 418.900, 571.089 414.500 C 567.753 410.100, 564.338 405.600, 563.501 404.500 C 562.664 403.400, 560.500 400.477, 558.692 398.005 C 555.234 393.275, 553.801 392.568, 550.454 393.944 M 593.227 394.040 C 590.967 394.947, 590.955 395.059, 591.227 412.686 L 591.500 430.420 594.948 431.124 C 596.844 431.511, 600.219 431.519, 602.448 431.140 L 606.500 430.453 606.800 424.726 C 606.965 421.577, 607.325 419, 607.599 419 C 607.874 419, 610.889 421.689, 614.299 424.976 C 621.146 431.574, 624.669 432.758, 632.991 431.257 C 638.736 430.222, 639.321 427.979, 634.606 425.066 C 632.683 423.877, 629.670 421.560, 627.911 419.917 C 624.840 417.048, 624.788 416.873, 626.607 415.497 C 627.648 414.709, 628.826 414.049, 629.224 414.032 C 630.305 413.984, 633 408.383, 633 406.185 C 633 403.380, 629.367 399.228, 624.935 396.967 C 619.045 393.962, 598.210 392.038, 593.227 394.040 M 265.033 394.958 C 263.818 395.727, 263.620 398.769, 263.880 412.693 C 264.090 423.987, 264.571 429.741, 265.346 430.235 C 267.230 431.434, 278.808 431.119, 279.594 429.848 C 279.986 429.214, 280.429 421.315, 280.580 412.295 L 280.853 395.895 278.361 394.947 C 275.185 393.740, 266.950 393.746, 265.033 394.958 M 355.250 394.662 C 354.318 395.039, 354 399.564, 354 412.476 C 354 427.338, 354.224 429.872, 355.582 430.393 C 356.452 430.727, 364.986 431, 374.547 431 C 391.164 431, 391.979 430.908, 393.050 428.907 C 393.666 427.756, 393.906 425.763, 393.584 424.479 C 393.091 422.513, 392.146 422.037, 387.608 421.470 C 384.644 421.100, 379.818 420.955, 376.884 421.148 C 372.434 421.442, 371.492 421.210, 371.201 419.750 C 370.892 418.194, 371.790 418, 379.304 418 C 388.864 418, 390.329 417.138, 389.818 411.815 L 389.500 408.500 380.500 408 C 373.389 407.605, 371.500 407.185, 371.500 406 C 371.500 404.777, 373.486 404.448, 382.239 404.216 C 392.807 403.937, 392.989 403.892, 393.616 401.393 C 393.967 399.996, 393.756 397.761, 393.148 396.426 L 392.043 394 374.271 394.079 C 364.497 394.122, 355.938 394.385, 355.250 394.662 M 448.500 395.610 C 440.552 397.607, 436 401.021, 436 404.986 C 436 408.576, 439.930 411.293, 449.880 414.581 C 454.326 416.051, 458.759 417.871, 459.732 418.626 C 461.414 419.933, 461.406 420.073, 459.559 421.500 C 457.068 423.425, 448.970 423.445, 446.441 421.532 C 443.864 419.582, 440.234 419.692, 436.201 421.843 C 433.064 423.516, 432.990 423.681, 434.701 425.223 C 441.979 431.785, 464.558 431.521, 471.722 424.792 C 477.794 419.087, 472.517 413.090, 457.846 409.025 C 450.258 406.922, 448.367 405.834, 449.399 404.164 C 450.587 402.241, 455.724 401.858, 459.449 403.414 C 462.743 404.791, 463.496 404.785, 467.052 403.362 C 472.005 401.381, 472.069 399.477, 467.250 397.446 C 463.400 395.823, 452.066 394.713, 448.500 395.610 M 217.689 396.644 C 217.310 397.023, 217 404.438, 217 413.121 L 217 428.909 220.342 429.536 C 222.180 429.881, 224.993 430.014, 226.592 429.832 C 229.410 429.510, 229.516 429.298, 230 423 L 230.500 416.500 240 416 L 249.500 415.500 249.500 412.500 L 249.500 409.500 242 409.247 C 231.447 408.891, 229.803 408.400, 230.185 405.715 C 230.483 403.618, 231.084 403.473, 241.500 403 L 252.500 402.500 252.500 399.500 L 252.500 396.500 235.439 396.227 C 226.056 396.077, 218.069 396.265, 217.689 396.644 M 266.710 396.623 C 266.320 397.014, 266 404.410, 266 413.060 C 266 430.343, 265.871 430, 272.391 430 C 278.818 430, 279.086 429.244, 278.777 411.993 L 278.500 396.500 272.960 396.206 C 269.913 396.045, 267.101 396.232, 266.710 396.623 M 292 397.500 C 292 398.325, 292.461 399, 293.025 399 C 293.588 399, 294.477 400.125, 295 401.500 C 295.523 402.875, 296.412 404, 296.975 404 C 297.539 404, 298 404.689, 298 405.531 C 298 406.374, 298.675 407.322, 299.500 407.638 C 300.325 407.955, 301.010 408.728, 301.023 409.357 C 301.036 409.986, 302.498 412.136, 304.273 414.136 C 306.048 416.136, 308.175 418.779, 309 420.009 C 309.825 421.239, 310.956 422.752, 311.513 423.373 C 312.070 423.993, 313.318 425.738, 314.286 427.250 C 315.254 428.762, 316.823 429.982, 317.773 429.961 C 318.813 429.937, 324.267 423.573, 331.486 413.961 C 338.078 405.182, 343.842 398, 344.295 398 C 344.747 398, 344.840 397.550, 344.500 397 C 343.791 395.853, 333.041 395.660, 331.429 396.765 C 329.690 397.959, 320 410.851, 320 411.971 C 320 414.312, 316.075 412.794, 314.255 409.750 C 313.187 407.962, 310.432 404.137, 308.133 401.250 L 303.953 396 297.977 396 C 293.331 396, 292 396.334, 292 397.500 M 356.689 396.644 C 355.424 397.910, 355.893 427.493, 357.200 428.800 C 358.027 429.627, 363.091 430, 373.509 430 C 389.521 430, 392.576 429.239, 391.847 425.434 C 391.519 423.716, 390.473 423.472, 382.489 423.250 C 369.981 422.903, 368.803 422.545, 369.187 419.215 C 369.498 416.515, 369.552 416.497, 379 416 L 388.500 415.500 388.500 412.500 L 388.500 409.500 379 409 C 369.667 408.509, 369.500 408.456, 369.500 406 C 369.500 403.515, 369.567 403.497, 380.500 403 L 391.500 402.500 391.500 399.500 L 391.500 396.500 374.439 396.227 C 365.056 396.077, 357.069 396.265, 356.689 396.644 M 483.392 397.420 C 481.881 401.358, 483.304 402.484, 490.436 403 L 497.354 403.500 497.106 415.677 C 496.828 429.285, 497.190 430.017, 504.184 429.985 C 509.707 429.959, 509.911 429.485, 510.218 415.961 L 510.500 403.500 517 403 C 523.444 402.504, 523.500 402.474, 523.500 399.500 L 523.500 396.500 503.727 396.229 C 487.122 396.001, 483.864 396.192, 483.392 397.420 M 544.943 404.250 C 541.475 408.788, 537.931 413.266, 537.068 414.202 C 536.206 415.138, 535.050 416.493, 534.500 417.212 C 533.950 417.932, 531.784 420.651, 529.688 423.255 C 527.591 425.859, 526.155 428.441, 526.497 428.994 C 526.838 429.548, 529.389 430, 532.165 430 C 536.089 430, 537.872 429.444, 540.182 427.500 C 542.912 425.203, 543.954 425, 553.025 425 C 562.169 425, 563.096 425.184, 565.595 427.500 C 567.766 429.512, 569.325 430, 573.587 430 C 579.056 430, 581.365 428.519, 578.891 426.598 C 578.113 425.994, 575.037 422.350, 572.055 418.500 C 569.073 414.650, 566.265 411.350, 565.816 411.167 C 565.367 410.983, 565 410.218, 565 409.466 C 565 408.715, 564.404 407.740, 563.676 407.300 C 562.948 406.860, 561.260 404.956, 559.926 403.069 C 556.483 398.199, 554.212 396, 552.625 396 C 551.869 396, 548.412 399.712, 544.943 404.250 M 593 412.393 C 593 430.607, 592.758 430, 600.023 430 C 604.761 430, 605.386 429.070, 605.116 422.418 C 605 419.536, 605.379 416.884, 605.960 416.525 C 606.540 416.166, 609.599 418.301, 612.758 421.268 C 621.235 429.234, 622.675 430, 629.163 430 C 632.309 430, 635.129 429.601, 635.430 429.113 C 635.732 428.625, 633.575 426.372, 630.638 424.106 C 627.701 421.840, 624.496 419.101, 623.517 418.019 C 621.794 416.115, 621.821 416.019, 624.328 415.065 C 631.459 412.354, 633.135 405.837, 627.926 401.080 C 623.503 397.040, 618.838 396, 605.134 396 L 593 396 593 412.393 M 605.390 404.427 C 605.088 405.212, 604.990 406.900, 605.171 408.177 C 605.429 410.002, 606.223 410.569, 608.869 410.822 C 616.246 411.528, 621.337 406.219, 615.435 403.975 C 611.598 402.517, 606.027 402.767, 605.390 404.427 M 607.618 404.715 C 607.278 405.055, 607 406.158, 607 407.167 C 607 408.572, 607.760 408.996, 610.250 408.985 C 614.162 408.966, 616.922 407.486, 615.492 406.174 C 614.200 404.989, 608.416 403.918, 607.618 404.715 M 550.402 414.507 C 547.292 417.617, 548.277 418.959, 553.691 418.985 C 557.977 419.005, 558.530 417.675, 555.565 414.475 L 553.097 411.812 550.402 414.507 M 551.500 416 C 551.160 416.550, 551.584 417, 552.441 417 C 553.298 417, 554 416.550, 554 416 C 554 415.450, 553.577 415, 553.059 415 C 552.541 415, 551.840 415.450, 551.500 416 M 218.250 439.031 C 216.092 439.898, 216 440.427, 216 451.900 C 216 462.987, 216.147 463.912, 218 464.500 C 221.756 465.692, 224 464.171, 224 460.433 C 224 457.271, 224.241 457, 227.057 457 C 239.557 457, 247.975 449.083, 241.722 443.208 C 237.025 438.796, 224.417 436.552, 218.250 439.031 M 257.750 439.080 C 256.244 439.957, 256 441.701, 256 451.571 C 256 462.837, 256.045 463.063, 258.500 464.182 C 262.609 466.054, 266 463.917, 266 459.454 C 266 456.191, 266.204 455.930, 268.241 456.577 C 269.474 456.968, 272.541 459.023, 275.056 461.144 C 277.571 463.265, 280.575 465, 281.733 465 C 284.727 465, 287 463.977, 287 462.630 C 287 461.588, 285.871 460.551, 280.307 456.483 C 278.727 455.328, 278.852 454.996, 281.791 452.522 C 283.637 450.969, 285 448.875, 285 447.591 C 285 444.793, 281.026 441.273, 275.776 439.421 C 271.137 437.784, 260.326 437.580, 257.750 439.080 M 308.577 439.589 C 305.870 440.326, 302.045 442.229, 300.077 443.817 C 297.146 446.182, 296.444 447.471, 296.188 450.954 C 295.795 456.294, 297.481 458.320, 305.500 462.140 C 314.602 466.476, 324.884 465.573, 333.735 459.661 C 342.773 453.623, 338.120 442.979, 324.905 439.462 C 318.505 437.759, 315.202 437.785, 308.577 439.589 M 397.742 439.400 C 395.658 441.485, 396.450 456.722, 398.779 459.345 C 401.349 462.238, 407.976 464.954, 412.500 464.968 C 417.203 464.983, 426.407 460.976, 427.845 458.289 C 428.398 457.257, 428.976 452.691, 429.131 448.143 C 429.473 438.120, 428.122 436.482, 421.565 438.975 C 419.101 439.912, 419 440.271, 419 448.115 C 419 454.718, 418.665 456.534, 417.250 457.608 C 414.882 459.406, 410.921 459.333, 408.223 457.443 C 406.251 456.063, 406 455.011, 406 448.143 C 406 443.454, 405.527 439.927, 404.800 439.200 C 403.178 437.578, 399.459 437.684, 397.742 439.400 M 454.416 439.487 C 445.410 442.331, 440 446.866, 440 451.573 C 440 454.587, 444.371 459.190, 450 462.105 C 456.065 465.245, 467.622 465.439, 473.500 462.500 C 477.973 460.264, 478.335 459.041, 475.026 457.352 C 473.423 456.534, 471.873 456.499, 469.638 457.231 C 463.615 459.202, 459.458 459.231, 455.422 457.331 C 451.830 455.640, 451.500 455.151, 451.500 451.523 C 451.500 447.700, 451.669 447.500, 456.356 445.759 C 460.948 444.055, 461.537 444.047, 467.146 445.621 C 471.767 446.918, 473.622 447.038, 475.539 446.164 C 480.094 444.089, 477.984 441.613, 469.806 439.436 C 463.468 437.749, 459.884 437.761, 454.416 439.487 M 485.529 439.355 C 482.263 441.743, 484.303 443.858, 490.198 444.196 L 495.500 444.500 495.792 453.448 C 496.110 463.213, 496.901 465.008, 500.872 464.985 C 505.470 464.958, 506.054 463.875, 506.549 454.470 C 507.055 444.855, 507.541 444.040, 512.781 444.015 C 516.441 443.998, 517.957 441.858, 515.989 439.487 C 514.283 437.431, 488.314 437.318, 485.529 439.355 M 529.200 439.200 C 528.411 439.989, 528 444.200, 528 451.500 C 528 463.242, 528.603 465, 532.629 465 C 537.124 465, 538 462.710, 538 450.964 C 538 441.217, 537.796 439.961, 536.066 439.035 C 533.493 437.658, 530.674 437.726, 529.200 439.200 M 560.486 439.853 C 546.065 444.777, 544.189 455.521, 556.684 461.634 C 564.484 465.450, 572.602 465.933, 580 463.021 C 587.920 459.903, 591 456.654, 591 451.417 C 591 447.874, 590.456 446.730, 587.569 444.195 C 583.741 440.833, 575.201 437.963, 569.346 438.070 C 567.231 438.109, 563.244 438.911, 560.486 439.853 M 631.250 439.031 C 629.236 439.841, 629 440.626, 629 446.519 L 629 453.102 625.250 450.301 C 623.188 448.760, 620.905 446.938, 620.179 446.250 C 619.452 445.563, 618.501 445, 618.066 445 C 617.631 445, 615.576 443.650, 613.500 442 C 611.271 440.228, 608.541 439, 606.833 439 L 603.940 439 604.220 451.750 L 604.500 464.500 607.625 464.804 C 612.429 465.271, 614.237 462.808, 613.834 456.344 C 613.468 450.491, 614.135 449.955, 618 452.991 C 624.991 458.485, 634.407 464.081, 636.198 463.807 C 638.057 463.523, 638.233 462.630, 638.521 452.049 C 638.787 442.297, 638.586 440.410, 637.167 439.331 C 635.220 437.851, 634.303 437.804, 631.250 439.031 M 352.250 439.961 C 350.112 440.887, 350 441.484, 350 451.933 C 350 465.103, 349.904 465, 362.275 465 C 369.668 465, 371.425 464.628, 376.865 461.910 C 381.645 459.521, 383.375 458.039, 384.487 455.377 C 386.784 449.880, 384.301 445.276, 377.007 441.504 C 373.142 439.505, 355.800 438.424, 352.250 439.961 M 217 451.447 L 217 463.133 219.750 462.816 C 222.013 462.556, 222.554 461.948, 222.803 459.387 C 223.098 456.355, 223.266 456.257, 229.249 455.632 C 237.337 454.786, 242.167 451.689, 241.777 447.599 C 241.295 442.549, 237.390 440.653, 226.488 440.176 L 217 439.761 217 451.447 M 259.250 440.603 C 258.361 441.004, 258 444.317, 258 452.083 L 258 463 260.940 463 C 263.615 463, 263.907 462.663, 264.190 459.250 C 264.485 455.685, 264.666 455.508, 267.859 455.659 C 270.062 455.764, 272.298 456.841, 274.359 458.789 C 278.445 462.654, 281.067 463.906, 283.341 463.079 C 284.952 462.494, 284.712 462.009, 281.430 459.205 C 279.366 457.442, 277.300 456, 276.839 456 C 275.059 456, 276.158 454.402, 279.507 452.121 C 283.783 449.209, 283.898 447.234, 280.009 443.508 C 277.283 440.897, 276.284 440.616, 268.759 440.341 C 264.216 440.176, 259.938 440.294, 259.250 440.603 M 311.500 440.427 C 310.950 440.646, 309.271 441.096, 307.768 441.427 C 306.266 441.758, 303.453 443.419, 301.518 445.118 C 298.677 447.612, 298 448.924, 298 451.929 C 298 456.530, 300.570 459.128, 307.500 461.535 C 317.184 464.899, 328.007 463.193, 333.810 457.390 C 336.724 454.476, 337.147 453.486, 336.615 450.824 C 335.809 446.794, 334.523 445.307, 329.728 442.861 C 326.148 441.035, 314.035 439.417, 311.500 440.427 M 398.667 440.667 C 398.300 441.033, 398 444.818, 398 449.078 C 398 456.386, 398.163 456.959, 400.884 459.249 C 402.469 460.583, 405.833 462.253, 408.359 462.961 C 412.331 464.072, 413.664 464.015, 418.226 462.533 C 426.451 459.860, 427 459.034, 427 449.314 C 427 442.631, 426.683 440.816, 425.433 440.336 C 422.666 439.274, 421.670 441.673, 421.902 448.839 C 422.111 455.287, 421.944 455.899, 419.428 457.878 C 415.787 460.742, 409.186 460.754, 406.125 457.902 C 404.165 456.076, 403.901 454.927, 404.091 449.057 C 404.211 445.346, 403.989 441.790, 403.596 441.155 C 402.820 439.900, 399.739 439.594, 398.667 440.667 M 454.500 440.868 C 450.020 442.040, 447.502 443.614, 444.608 447.054 C 441.450 450.807, 441.384 452.682, 444.286 456.131 C 447.073 459.442, 451.497 461.699, 457.887 463.069 C 461.942 463.939, 464.008 463.821, 468.937 462.438 C 472.861 461.337, 475 460.214, 475 459.255 C 475 458.107, 474.268 457.930, 471.750 458.470 C 462.864 460.375, 457.158 460.217, 453.132 457.954 C 446.371 454.154, 447.055 448.190, 454.636 444.837 C 459.325 442.763, 459.606 442.759, 471.250 444.620 C 475.326 445.271, 476.378 443.808, 473.095 442.051 C 470.526 440.676, 458.226 439.893, 454.500 440.868 M 487.496 441.007 C 486.706 442.285, 488.370 442.863, 493.863 443.218 L 498.227 443.500 498.363 453 L 498.500 462.500 501.213 462.813 L 503.926 463.126 504.213 453.313 L 504.500 443.500 509.250 443.195 C 512.585 442.981, 514 442.460, 514 441.445 C 514 440.259, 511.677 440, 501.059 440 C 493.450 440, 487.862 440.415, 487.496 441.007 M 530.709 440.624 C 530.319 441.014, 530 446.238, 530 452.233 L 530 463.133 532.750 462.816 L 535.500 462.500 535.500 451.500 C 535.500 441.188, 535.372 440.482, 533.459 440.208 C 532.336 440.047, 531.099 440.235, 530.709 440.624 M 562.245 440.914 C 554.278 442.958, 548.728 449.681, 551.153 454.349 C 553.170 458.229, 556.089 460.221, 562.639 462.186 C 568.258 463.872, 569.831 463.971, 574.797 462.949 C 584.534 460.946, 590 456.805, 590 451.432 C 590 448.221, 587.239 445.292, 581.199 442.093 C 578.281 440.548, 566.522 439.817, 562.245 440.914 M 606.500 440.646 C 605.678 440.935, 605.508 447.923, 605.974 462.316 C 605.988 462.765, 607.237 462.990, 608.750 462.816 C 611.434 462.508, 611.503 462.337, 611.633 455.701 C 611.706 451.961, 611.999 448.668, 612.285 448.382 C 612.570 448.096, 617.848 451.264, 624.014 455.421 C 630.179 459.578, 635.623 462.733, 636.112 462.431 C 637.352 461.664, 637.240 441.266, 635.991 440.494 C 635.436 440.152, 634.029 440.173, 632.864 440.543 C 630.910 441.163, 630.785 441.746, 631.240 448.108 C 631.584 452.916, 631.386 455, 630.585 455 C 629.953 455, 625.176 451.938, 619.968 448.195 C 610.174 441.156, 608.198 440.049, 606.500 440.646 M 352.954 442.250 C 352.710 448.955, 352.951 462.284, 353.323 462.657 C 354.787 464.121, 364.676 464.050, 370.875 462.531 C 379.504 460.416, 383.449 456.853, 383.292 451.314 C 383.179 447.325, 381.110 445.084, 375.128 442.472 C 370.755 440.563, 353.022 440.385, 352.954 442.250 M 223.667 443.667 C 223.300 444.033, 223 446.058, 223 448.167 L 223 452 227.889 452 C 231.321 452, 233.482 451.405, 235.139 450.003 L 237.500 448.006 234.694 445.503 C 231.982 443.083, 225.354 441.980, 223.667 443.667 M 264.667 443.667 C 264.300 444.033, 264 446.058, 264 448.167 L 264 452 268.277 452 C 272.790 452, 277 449.828, 277 447.500 C 277 445.301, 272.881 443, 268.944 443 C 266.958 443, 265.033 443.300, 264.667 443.667 M 309.251 444.973 C 304.236 447.249, 302.216 450.667, 303.961 453.927 C 308.270 461.979, 325.011 462.140, 330.585 454.183 C 332.814 450.999, 330.666 447.533, 324.935 445.067 C 318.981 442.506, 314.741 442.481, 309.251 444.973 M 562.251 444.973 C 557.460 447.147, 554.956 451.106, 556.648 453.828 C 558.958 457.543, 564.149 460, 569.688 460 C 583.284 460, 589.120 450.097, 578.473 445.092 C 572.958 442.500, 567.782 442.462, 562.251 444.973 M 224.651 444.756 C 224.394 445.171, 224.420 446.746, 224.709 448.256 C 225.150 450.565, 225.739 451, 228.425 451 C 230.181 451, 232.491 450.325, 233.559 449.499 C 235.464 448.027, 235.456 447.961, 233.139 445.999 C 230.822 444.037, 225.571 443.268, 224.651 444.756 M 266 447.500 C 266 450.669, 266.265 451, 268.809 451 C 270.354 451, 272.491 450.325, 273.559 449.499 C 275.464 448.027, 275.456 447.961, 273.139 445.999 C 271.841 444.900, 269.703 444, 268.389 444 C 266.325 444, 266 444.477, 266 447.500 M 311.500 445.731 C 306.792 447.648, 306.036 448.553, 306.015 452.299 C 306.003 454.628, 306.713 455.421, 310.250 457.027 C 312.587 458.088, 315.980 458.966, 317.790 458.978 C 321.730 459.004, 328.497 455.754, 329.399 453.402 C 330.447 450.671, 327.440 447.338, 322.371 445.611 C 316.687 443.674, 316.550 443.676, 311.500 445.731 M 358.667 444.667 C 358.300 445.033, 358 448.633, 358 452.667 L 358 460 364.250 459.996 C 368.698 459.994, 371.429 459.426, 373.723 458.027 C 379.584 454.454, 378.946 448.129, 372.452 445.415 C 368.982 443.966, 359.863 443.470, 358.667 444.667 M 565.026 445.491 C 563.148 446.124, 560.756 447.786, 559.712 449.184 C 558.077 451.374, 557.997 452.022, 559.137 453.847 C 560.624 456.228, 566.753 459, 570.531 459 C 571.901 459, 575.042 458.050, 577.511 456.890 C 581.464 455.032, 582 454.395, 582 451.559 C 582 449.234, 581.374 448.011, 579.750 447.162 C 575.726 445.060, 568.682 444.260, 565.026 445.491 M 360 451.861 L 360 459 364.250 458.996 C 366.721 458.994, 369.861 458.163, 371.750 457.011 C 374.431 455.376, 375 454.410, 375 451.490 C 375 447.451, 373.059 446.276, 364.750 445.287 L 360 444.721 360 451.861" stroke="none" fill="#e5b124" fill-rule="evenodd"/></svg>